<?xml version="1.0" encoding="UTF-8"?>
<svg version="1.1" xmlns="http://www.w3.org/2000/svg" width="512" height="512">
<path d="M0 0 C1.11593536 -0.0071553 2.23187073 -0.01431061 3.38162231 -0.02168274 C7.07823391 -0.03861756 10.77364041 -0.01912994 14.47021484 0.00219727 C17.0412913 0.00136867 19.61236771 -0.00109037 22.18344116 -0.00511169 C27.57884998 -0.00797346 32.97381303 0.0062328 38.36914062 0.03417969 C44.58581932 0.06613511 50.80186976 0.06625436 57.01859248 0.04896492 C63.01582832 0.03302692 69.01277459 0.03998488 75.01002121 0.05690193 C77.5528042 0.06207034 80.09560524 0.06161831 82.63838577 0.05535698 C86.20462452 0.04987507 89.76981797 0.07038103 93.3359375 0.09765625 C94.37838623 0.09113037 95.42083496 0.08460449 96.49487305 0.07788086 C107.32505669 0.21792873 116.37855059 3.94291646 124.05615234 11.63110352 C129.66308853 19.67290432 134.21208501 28.44310406 138.75265503 37.11468506 C140.48327192 40.41774218 142.2296624 43.71241376 143.97802734 47.00610352 C144.32687485 47.6633139 144.67572235 48.32052429 145.03514099 48.99765015 C148.08627176 54.72587752 151.26592379 60.37557277 154.49365234 66.00610352 C160.10072685 75.79980538 165.39545432 85.74245414 170.65939331 95.72283936 C175.1683801 104.26630129 179.75220668 112.74846096 184.55615234 121.13110352 C190.14448802 130.88246703 195.4172729 140.78371483 200.65966797 150.72338867 C205.16856413 159.26666572 209.75230915 167.74863976 214.55615234 176.13110352 C219.75231149 185.19813879 224.68145902 194.38897746 229.55615234 203.63110352 C234.49606072 212.99584704 239.49210581 222.31082332 244.74365234 231.50610352 C249.50675846 239.85075256 254.16700807 248.24558955 258.74365234 256.69360352 C259.34459717 257.79494629 259.94554199 258.89628906 260.56469727 260.03100586 C261.12261963 261.06563965 261.68054199 262.10027344 262.25537109 263.16625977 C262.7486792 264.07770752 263.2419873 264.98915527 263.75024414 265.92822266 C267.98297009 274.6888338 268.45971963 284.79372573 266.50927734 294.29516602 C265.54344164 296.87376511 264.35985938 299.2031608 263.05615234 301.63110352 C262.37611537 302.97010978 261.69790862 304.31004628 261.02099609 305.65063477 C256.03620518 315.40120855 250.65951185 324.92554658 245.23291016 334.43505859 C241.1467288 341.62395338 237.21420296 348.88737815 233.33444214 356.18881226 C228.77108343 364.77551708 224.19597244 373.34956246 219.30615234 381.75610352 C218.7150769 382.78550049 218.7150769 382.78550049 218.11206055 383.83569336 C216.29692041 386.90660346 215.0757598 388.61803188 212.05615234 390.63110352 C207.05956531 391.45021614 207.05956531 391.45021614 204.05615234 390.63110352 C198.15192199 385.13760223 194.51607286 376.70713409 190.61865234 369.75610352 C189.91487958 368.5109418 189.21043972 367.26615691 188.50537109 366.02172852 C187.4201956 364.10638779 186.33535089 362.19087119 185.25247192 360.27423096 C181.72736119 354.03649519 178.14552393 347.83205566 174.55615234 341.63110352 C169.33908476 332.60616835 164.15700084 323.56182241 158.99365234 314.50610352 C154.06018501 305.85414493 149.08795821 297.22632847 144.05615234 288.63110352 C138.33366785 278.85607586 132.69771795 269.03323395 127.08740234 259.19360352 C122.60059498 251.32572947 118.08850476 243.47284949 113.55615234 235.63110352 C108.33972749 226.60579505 103.15700259 217.56182549 97.99365234 208.50610352 C93.06018501 199.85414493 88.08795821 191.22632847 83.05615234 182.63110352 C77.33366785 172.85607586 71.69771795 163.03323395 66.08740234 153.19360352 C61.60059498 145.32572947 57.08850476 137.47284949 52.55615234 129.63110352 C47.33972749 120.60579505 42.15700259 111.56182549 36.99365234 102.50610352 C31.50093012 92.87336412 25.94806335 83.27772569 20.3449707 73.70874023 C15.18108599 64.87660592 10.09992025 55.99805104 5.05224609 47.09912109 C1.74594035 41.27909155 -1.60662062 35.49678778 -5.06884766 29.76782227 C-5.72111328 28.68049805 -6.37337891 27.59317383 -7.04541016 26.47290039 C-8.27733094 24.42603612 -9.52145277 22.38644718 -10.77978516 20.35571289 C-16.10514231 11.47386722 -16.10514231 11.47386722 -14.94384766 5.63110352 C-11.59542897 -0.93463402 -6.56738684 -0.07281209 0 0 Z " fill="#C14EFF" transform="translate(212.94384765625,60.368896484375)"/>
<path d="M0 0 C0.90508911 -0.00322445 1.81017821 -0.00644889 2.74269426 -0.00977105 C3.73830074 -0.00822245 4.73390723 -0.00667385 5.75968361 -0.00507832 C6.81635912 -0.00734387 7.87303462 -0.00960943 8.9617306 -0.01194364 C12.52001308 -0.0182988 16.07825763 -0.0174533 19.63654518 -0.01662922 C22.18056729 -0.01961976 24.72458895 -0.02302204 27.26861 -0.02680683 C33.47223865 -0.03474096 39.67585329 -0.03786195 45.87948655 -0.03841921 C50.92132673 -0.03889409 55.96316378 -0.04094744 61.00500298 -0.04411983 C75.29437166 -0.05292813 89.58373284 -0.05753895 103.87310426 -0.05678936 C104.64372629 -0.0567494 105.41434831 -0.05670945 106.20832253 -0.05666828 C106.97988369 -0.0566274 107.75144486 -0.05658652 108.54638667 -0.0565444 C121.05232649 -0.0561379 133.5582362 -0.06570801 146.06416731 -0.07980665 C158.90009943 -0.09416332 171.73601687 -0.10107722 184.57195723 -0.10021287 C191.78039294 -0.09988065 198.98879709 -0.10263864 206.19722557 -0.11339092 C212.97527128 -0.1234363 219.75323919 -0.12316783 226.53129196 -0.11587429 C229.02220888 -0.11482542 231.51312991 -0.11720915 234.00403976 -0.12323475 C237.39817167 -0.1309149 240.79207065 -0.12633617 244.18619728 -0.11860371 C245.17734232 -0.12374727 246.16848737 -0.12889083 247.18966711 -0.13419026 C255.71726074 -0.09110945 255.71726074 -0.09110945 259.59992409 2.12863445 C261.34601784 4.2887907 261.34601784 4.2887907 263.03742409 7.19113445 C263.36323463 7.74349773 263.68904518 8.29586102 264.02472878 8.86496258 C265.23731729 10.94150679 266.42015543 13.03326369 267.59992409 15.12863445 C268.10733131 16.02694988 268.61473854 16.92526531 269.13752174 17.85080242 C272.11723283 23.13654321 275.07796631 28.4326462 278.02961159 33.7341032 C281.14401835 39.32289033 284.29486288 44.88948374 287.47492409 50.44113445 C287.94937965 51.26959881 288.42383522 52.09806316 288.91266823 52.9516325 C289.91799788 54.70610933 290.92362346 56.4604166 291.92951393 58.21457195 C293.81734425 61.50792808 295.70314806 64.80244064 297.58820534 68.09738445 C297.93274757 68.69950253 298.27728981 69.3016206 298.63227272 69.92198467 C300.37535358 72.96905838 302.1163505 76.01729395 303.85334206 79.06784344 C306.74694295 84.14817512 309.64453421 89.22422993 312.61945534 94.2575407 C313.04782692 94.99125896 313.4761985 95.72497723 313.91755104 96.48092937 C314.67250807 97.77244681 315.43706007 99.05843482 316.21393776 100.33688641 C318.38154544 104.07632024 319.38800334 106.82896676 318.59992409 111.12863445 C316.57891476 113.94652621 314.96031881 115.83400025 311.47379458 116.58911145 C308.76612735 116.77297817 306.09899304 116.78990967 303.38515663 116.75682354 C301.82737315 116.76746512 301.82737315 116.76746512 300.2381193 116.77832168 C296.75263332 116.79594575 293.26825595 116.77777305 289.78278542 116.75973797 C287.28598459 116.76487522 284.78918738 116.77215502 282.29239845 116.78142071 C276.21020266 116.79804441 270.12844252 116.79127929 264.04628394 116.77333248 C259.10033669 116.75930276 254.15447659 116.75541448 249.20851135 116.75877476 C248.1522827 116.75949092 248.1522827 116.75949092 247.07471609 116.76022155 C245.64414605 116.7612479 244.21357603 116.76230326 242.78300603 116.76338731 C230.13003629 116.77195658 217.47722138 116.75527564 204.82428932 116.72555828 C192.55859806 116.69675093 180.29313012 116.68962249 168.02741432 116.70505047 C154.66519543 116.72183468 141.30308262 116.72582186 127.94086093 116.70834011 C126.51404585 116.70649579 125.08723075 116.70466106 123.66041565 116.70283604 C122.95844959 116.70192395 122.25648353 116.70101186 121.53324578 116.70007213 C116.59859849 116.69447815 111.66400313 116.69776355 106.72935867 116.70438099 C100.07677035 116.71294806 93.42445517 116.69987782 86.77190208 116.67253208 C84.33308362 116.66565844 81.89423513 116.66553927 79.45541763 116.67274761 C76.11979299 116.68146865 72.78515238 116.66543961 69.44960976 116.64329815 C68.01013055 116.6556593 68.01013055 116.6556593 66.54157096 116.66827017 C56.54616111 116.54626482 48.81589521 113.21034627 41.60090065 106.34201336 C38.41242472 102.81508281 36.18898987 99.00380977 33.97492409 94.81613445 C33.47968239 93.91588543 32.98444069 93.01563641 32.47419167 92.08810711 C31.40152348 90.13620541 30.33607354 88.18032283 29.27717018 86.22091961 C26.94471811 81.92065208 24.55589584 77.65253357 22.17121315 73.38107586 C19.62106454 68.80891984 17.08576801 64.22859241 14.54963112 59.64865398 C11.92335388 54.9061732 9.29266201 50.16614777 6.65998268 45.42721844 C5.38329245 43.12721089 4.108829 40.8259657 2.83674049 38.52340984 C0.16749019 33.69970852 -2.51484171 28.89340877 -5.34148216 24.15988445 C-5.77025658 23.4330949 -6.19903099 22.70630535 -6.64079857 21.95749187 C-7.40030651 20.67785578 -8.17326138 19.40603116 -8.96404076 18.14548016 C-11.66820314 13.56486537 -11.86624505 10.29985952 -11.40007591 5.12863445 C-8.24452713 0.8849654 -5.11889052 0.00460561 0 0 Z " fill="#DF66FF" transform="translate(43.400075912475586,334.8713655471802)"/>
<path d="M0 0 C3.9930629 2.72331893 6.26216797 5.57465822 8.71484375 9.70703125 C9.39361572 10.83898926 10.0723877 11.97094727 10.77172852 13.13720703 C11.49373038 14.3622587 12.21565224 15.58735752 12.9375 16.8125 C13.69552271 18.08247218 14.4545695 19.35183362 15.21459961 20.62060547 C16.75363001 23.19174473 18.2882679 25.7654204 19.81933594 28.34130859 C22.86404496 33.45798627 25.96146396 38.5423219 29.0625 43.625 C29.90578857 45.01066162 29.90578857 45.01066162 30.76611328 46.42431641 C35.09102466 53.52680655 39.44898816 60.60867805 43.8125 67.6875 C49.45015372 76.83406114 55.05321742 86.00073305 60.625 95.1875 C60.9816272 95.7754837 61.33825439 96.36346741 61.70568848 96.9692688 C63.46966217 99.87790521 65.23319793 102.7868069 66.99658203 105.69580078 C74.36720905 117.85203599 81.75614025 129.99651472 89.21655273 142.09790039 C91.25897952 145.41312663 93.29560281 148.73186829 95.33203125 152.05078125 C97.53026618 155.62963219 99.74985204 159.19153035 102.01171875 162.73046875 C102.65596802 163.75527344 102.65596802 163.75527344 103.31323242 164.80078125 C104.39670369 166.5232799 105.49449038 168.23675273 106.59375 169.94921875 C108.31233266 173.67758835 108.63098522 175.94035247 108 180 C105.21919272 183.7277256 103.72981354 184.88262152 99.08784485 185.6292057 C97.52014633 185.65663009 95.95182181 185.65658926 94.3840332 185.63491821 C93.51757581 185.64271817 92.65111841 185.65051812 91.75840473 185.65855443 C88.85543088 185.6784961 85.9537648 185.66270144 83.05078125 185.64697266 C80.96950515 185.6537478 78.88823505 185.66265035 76.80697632 185.67352295 C71.15407515 185.69633488 65.50162978 185.68747191 59.84872055 185.67162752 C53.93599967 185.65897846 48.0233181 185.67070588 42.1105957 185.67855835 C32.18075546 185.68765778 22.25110109 185.67565917 12.32128906 185.65185547 C0.83712398 185.62464379 -10.64659729 185.63345773 -22.13075161 185.6609875 C-31.98651399 185.68366907 -41.84214267 185.68688326 -51.69792271 185.67379415 C-57.58623595 185.66599447 -63.4743405 185.66497244 -69.36264038 185.68147659 C-74.898246 185.69590809 -80.43327881 185.68592326 -85.96882248 185.65700531 C-88.00176415 185.65038751 -90.03475394 185.65230396 -92.06767654 185.66331863 C-94.84044868 185.67695811 -97.61137886 185.65987798 -100.3840332 185.63491821 C-101.19093944 185.64607182 -101.99784567 185.65722543 -102.82920361 185.66871703 C-106.86735553 185.59807601 -108.77490768 185.17537526 -111.99894714 182.66344261 C-114 180 -114 180 -114.6328125 176.75 C-113.78062753 171.70001499 -111.61753553 168.26720802 -108.875 164 C-107.76296465 162.21097242 -106.65098775 160.42190851 -105.5390625 158.6328125 C-104.95543945 157.70629883 -104.37181641 156.77978516 -103.77050781 155.82519531 C-101.46202339 152.14155195 -99.21204309 148.42396862 -96.9621582 144.7043457 C-91.41891302 135.54411921 -85.80543315 126.42702924 -80.1875 117.3125 C-74.54988043 108.16591755 -68.94678274 98.99926722 -63.375 89.8125 C-63.0183728 89.2245163 -62.66174561 88.63653259 -62.29431152 88.0307312 C-60.53033783 85.12209479 -58.76680207 82.2131931 -57.00341797 79.30419922 C-48.38159682 65.0843933 -39.72716655 50.88539332 -30.98486328 36.73925781 C-27.63349998 31.3101309 -24.31270238 25.8662214 -21.05078125 20.3828125 C-20.42107422 19.32964844 -19.79136719 18.27648437 -19.14257812 17.19140625 C-17.954892 15.20136654 -16.77473585 13.20680613 -15.60351562 11.20703125 C-8.09025798 -1.34837633 -8.09025798 -1.34837633 0 0 Z " fill="#E46BFF" transform="translate(172,114)"/>
</svg>
